# xmcd
#
# Track frame offsets:
#	150
#	21874
#	36173
#	65086
#	81217
#	98852
#	115523
#	129900
#	146299
#	162460
#	182147
#	196032
#
# Disc length: 2833 seconds
#
# Revision: 0
# Processed by: cddbd v1.5.1PL0 Copyright (c) Steve Scherf et al.
# Submitted via: dBpowerAMP V4.0
#
DISCID=9a0b0f0c
DTITLE=Dave, Duane and Neil - One Nation Over God
DYEAR=2004
DGENRE=Contemporary Christian
TTITLE0=One Nation Over God
TTITLE1=From a Star to Stripes
TTITLE2=From a Star to StripesStatue Of Liberty
TTITLE3=Set Me On The Rock, Joshua
TTITLE4=Whose God is Alive¿
TTITLE5=The Place of Prayer
TTITLE6=Loaves and Fishes
TTITLE7=Country Church
TTITLE8=I Just Don't Get It
TTITLE9=Father's House
TTITLE10=Immortal, Invincible, Almighty God
TTITLE11=He Has Forgiven Me
EXTD=
EXTT0=
EXTT1=
EXTT2=
EXTT3=
EXTT4=
EXTT5=
EXTT6=
EXTT7=
EXTT8=
EXTT9=
EXTT10=
EXTT11=
PLAYORDER=
